<svg xmlns="http://www.w3.org/2000/svg" viewBox="0 0 480 320" fill="none" aria-hidden="true">
  <rect width="480" height="320" rx="24" fill="url(#bg)"/>
  <defs>
    <linearGradient id="bg" x1="40" y1="0" x2="440" y2="320" gradientUnits="userSpaceOnUse">
      <stop stop-color="#0c1b2a"/>
      <stop offset="1" stop-color="#134e4a"/>
    </linearGradient>
  </defs>
  <rect x="28" y="28" width="200" height="88" rx="16" fill="#fff" fill-opacity=".08" stroke="#5eead4" stroke-opacity=".35"/>
  <circle cx="56" cy="72" r="14" fill="#2dd4bf"/>
  <rect x="80" y="58" width="120" height="10" rx="5" fill="#e2e8f0" fill-opacity=".9"/>
  <rect x="80" y="78" width="88" height="8" rx="4" fill="#94a3b8" fill-opacity=".7"/>
  <rect x="28" y="132" width="424" height="72" rx="16" fill="#fff" fill-opacity=".06" stroke="#fff" stroke-opacity=".12"/>
  <rect x="48" y="152" width="28" height="28" rx="8" fill="#2dd4bf"/>
  <rect x="90" y="154" width="220" height="10" rx="5" fill="#f1f5f9"/>
  <rect x="90" y="172" width="160" height="8" rx="4" fill="#94a3b8" fill-opacity=".8"/>
  <rect x="28" y="220" width="424" height="72" rx="16" fill="#fff" fill-opacity=".06" stroke="#fff" stroke-opacity=".12"/>
  <rect x="48" y="240" width="28" height="28" rx="8" fill="#0f766e"/>
  <rect x="90" y="242" width="200" height="10" rx="5" fill="#f1f5f9"/>
  <rect x="90" y="260" width="140" height="8" rx="4" fill="#94a3b8" fill-opacity=".8"/>
</svg>
